<svg id="visual" viewBox="0 0 1000 1000" width="1000" height="1000" xmlns="http://www.w3.org/2000/svg" xmlns:xlink="http://www.w3.org/1999/xlink" version="1.1"><rect x="0" y="0" width="1000" height="1000" fill="#F9F9F9"></rect><path d="M0 848L143 848L143 869L286 869L286 875L429 875L429 792L571 792L571 849L714 849L714 887L857 887L857 832L1000 832L1000 863L1000 1001L1000 1001L857 1001L857 1001L714 1001L714 1001L571 1001L571 1001L429 1001L429 1001L286 1001L286 1001L143 1001L143 1001L0 1001Z" fill="#848484"></path><path d="M0 843L143 843L143 877L286 877L286 935L429 935L429 923L571 923L571 889L714 889L714 866L857 866L857 872L1000 872L1000 832L1000 1001L1000 1001L857 1001L857 1001L714 1001L714 1001L571 1001L571 1001L429 1001L429 1001L286 1001L286 1001L143 1001L143 1001L0 1001Z" fill="#444444"></path><path d="M0 891L143 891L143 952L286 952L286 920L429 920L429 918L571 918L571 890L714 890L714 913L857 913L857 919L1000 919L1000 941L1000 1001L1000 1001L857 1001L857 1001L714 1001L714 1001L571 1001L571 1001L429 1001L429 1001L286 1001L286 1001L143 1001L143 1001L0 1001Z" fill="#0a0a0a"></path></svg>